<svg xmlns="http://www.w3.org/2000/svg" viewBox="0 0 100 100" fill-rule="evenodd"><g class="t-group-origins"><path d="M39.344 89.793c-.99 0-1.99-.352-2.887-1.068a1.25 1.25 0 0 1-.115-.102l-.613-.608a1.585 1.585 0 0 1-.132-.151L.472 41.574A1.85 1.85 0 0 1 0 40.349c0-.726.43-1.21.561-1.342a1.828 1.828 0 0 1 1.901-.462c.283.094.496.238.636.354l35.679 25.995L96.027 9.77c.776-.788 2.42-.815 3.249.026.723.714.723 1.776.723 2.229 0 .317-.103.625-.295.878L43.042 87.86c-1.019 1.278-2.349 1.933-3.698 1.933zm-1.014-3.301c1.171.885 2.075.006 2.414-.417l52.86-69.93L39.917 67.84a1.456 1.456 0 0 1-1.867.128L6.978 45.33l30.878 40.692.474.47zM1.161 41.069l.021.021-.021-.021zm97.383-29.045h.009-.009z" stroke-width="1" stroke="#3243ba" fill="#3243ba" stroke-width-old="0"/></g></svg>